<mxfile host="app.diagrams.net" agent="Mozilla/5.0 (Windows NT 10.0; Win64; x64) AppleWebKit/537.36 (KHTML, like Gecko) Chrome/140.0.0.0 Safari/537.36" version="28.2.0">
  <diagram name="Page-1" id="QwIS1v0G9uv_Q_8WFldx">
    <mxGraphModel dx="2339" dy="753" grid="1" gridSize="10" guides="1" tooltips="1" connect="1" arrows="1" fold="1" page="1" pageScale="1" pageWidth="850" pageHeight="1100" math="0" shadow="0">
      <root>
        <mxCell id="0" />
        <mxCell id="1" parent="0" />
        <mxCell id="VKdG92RhQ-Mi5-ToEN4U-6" style="edgeStyle=orthogonalEdgeStyle;rounded=0;orthogonalLoop=1;jettySize=auto;html=1;exitX=0.5;exitY=1;exitDx=0;exitDy=0;" parent="1" source="VKdG92RhQ-Mi5-ToEN4U-1" target="VKdG92RhQ-Mi5-ToEN4U-2" edge="1">
          <mxGeometry relative="1" as="geometry" />
        </mxCell>
        <mxCell id="VKdG92RhQ-Mi5-ToEN4U-7" style="edgeStyle=orthogonalEdgeStyle;rounded=0;orthogonalLoop=1;jettySize=auto;html=1;exitX=0.5;exitY=1;exitDx=0;exitDy=0;" parent="1" source="VKdG92RhQ-Mi5-ToEN4U-1" target="VKdG92RhQ-Mi5-ToEN4U-4" edge="1">
          <mxGeometry relative="1" as="geometry" />
        </mxCell>
        <mxCell id="VKdG92RhQ-Mi5-ToEN4U-18" style="edgeStyle=orthogonalEdgeStyle;rounded=0;orthogonalLoop=1;jettySize=auto;html=1;exitX=0.5;exitY=1;exitDx=0;exitDy=0;" parent="1" source="VKdG92RhQ-Mi5-ToEN4U-1" target="VKdG92RhQ-Mi5-ToEN4U-8" edge="1">
          <mxGeometry relative="1" as="geometry" />
        </mxCell>
        <mxCell id="VKdG92RhQ-Mi5-ToEN4U-1" value="App" style="rounded=0;whiteSpace=wrap;html=1;" parent="1" vertex="1">
          <mxGeometry x="365" y="170" width="120" height="60" as="geometry" />
        </mxCell>
        <mxCell id="JIdKogByBEllGDy6UzpI-8" style="edgeStyle=orthogonalEdgeStyle;rounded=0;orthogonalLoop=1;jettySize=auto;html=1;" edge="1" parent="1" source="VKdG92RhQ-Mi5-ToEN4U-2" target="JIdKogByBEllGDy6UzpI-7">
          <mxGeometry relative="1" as="geometry" />
        </mxCell>
        <mxCell id="VKdG92RhQ-Mi5-ToEN4U-2" value="NavBar" style="whiteSpace=wrap;html=1;" parent="1" vertex="1">
          <mxGeometry x="-130" y="280" width="120" height="60" as="geometry" />
        </mxCell>
        <mxCell id="JIdKogByBEllGDy6UzpI-1" style="edgeStyle=orthogonalEdgeStyle;rounded=0;orthogonalLoop=1;jettySize=auto;html=1;entryX=0.5;entryY=0;entryDx=0;entryDy=0;" edge="1" parent="1" source="VKdG92RhQ-Mi5-ToEN4U-4" target="zoykYoXqfU_duYT_paag-1">
          <mxGeometry relative="1" as="geometry" />
        </mxCell>
        <mxCell id="JIdKogByBEllGDy6UzpI-5" style="edgeStyle=orthogonalEdgeStyle;rounded=0;orthogonalLoop=1;jettySize=auto;html=1;exitX=0.5;exitY=1;exitDx=0;exitDy=0;entryX=0.5;entryY=0;entryDx=0;entryDy=0;" edge="1" parent="1" source="VKdG92RhQ-Mi5-ToEN4U-4" target="JIdKogByBEllGDy6UzpI-4">
          <mxGeometry relative="1" as="geometry" />
        </mxCell>
        <mxCell id="VKdG92RhQ-Mi5-ToEN4U-4" value="Footer" style="whiteSpace=wrap;html=1;" parent="1" vertex="1">
          <mxGeometry x="650" y="280" width="120" height="60" as="geometry" />
        </mxCell>
        <mxCell id="VKdG92RhQ-Mi5-ToEN4U-13" style="edgeStyle=orthogonalEdgeStyle;rounded=0;orthogonalLoop=1;jettySize=auto;html=1;exitX=0.5;exitY=1;exitDx=0;exitDy=0;" parent="1" source="VKdG92RhQ-Mi5-ToEN4U-8" target="VKdG92RhQ-Mi5-ToEN4U-9" edge="1">
          <mxGeometry relative="1" as="geometry" />
        </mxCell>
        <mxCell id="VKdG92RhQ-Mi5-ToEN4U-14" style="edgeStyle=orthogonalEdgeStyle;rounded=0;orthogonalLoop=1;jettySize=auto;html=1;" parent="1" source="VKdG92RhQ-Mi5-ToEN4U-8" target="VKdG92RhQ-Mi5-ToEN4U-12" edge="1">
          <mxGeometry relative="1" as="geometry" />
        </mxCell>
        <mxCell id="VKdG92RhQ-Mi5-ToEN4U-16" style="edgeStyle=orthogonalEdgeStyle;rounded=0;orthogonalLoop=1;jettySize=auto;html=1;exitX=0.5;exitY=1;exitDx=0;exitDy=0;" parent="1" source="VKdG92RhQ-Mi5-ToEN4U-8" target="VKdG92RhQ-Mi5-ToEN4U-11" edge="1">
          <mxGeometry relative="1" as="geometry" />
        </mxCell>
        <mxCell id="VKdG92RhQ-Mi5-ToEN4U-17" style="edgeStyle=orthogonalEdgeStyle;rounded=0;orthogonalLoop=1;jettySize=auto;html=1;exitX=0.5;exitY=1;exitDx=0;exitDy=0;" parent="1" source="VKdG92RhQ-Mi5-ToEN4U-8" target="VKdG92RhQ-Mi5-ToEN4U-10" edge="1">
          <mxGeometry relative="1" as="geometry" />
        </mxCell>
        <mxCell id="VKdG92RhQ-Mi5-ToEN4U-8" value="Dashboard" style="rounded=0;whiteSpace=wrap;html=1;" parent="1" vertex="1">
          <mxGeometry x="280" y="280" width="120" height="60" as="geometry" />
        </mxCell>
        <mxCell id="VKdG92RhQ-Mi5-ToEN4U-9" value="TopologyCanvas" style="rounded=0;whiteSpace=wrap;html=1;" parent="1" vertex="1">
          <mxGeometry x="35" y="510" width="120" height="60" as="geometry" />
        </mxCell>
        <mxCell id="VKdG92RhQ-Mi5-ToEN4U-10" value="IntentSummary" style="whiteSpace=wrap;html=1;" parent="1" vertex="1">
          <mxGeometry x="525" y="510" width="120" height="60" as="geometry" />
        </mxCell>
        <mxCell id="VKdG92RhQ-Mi5-ToEN4U-11" value="TimeSeriesChart" style="whiteSpace=wrap;html=1;" parent="1" vertex="1">
          <mxGeometry x="355" y="510" width="120" height="60" as="geometry" />
        </mxCell>
        <mxCell id="VKdG92RhQ-Mi5-ToEN4U-12" value="MetricsGrid" style="whiteSpace=wrap;html=1;" parent="1" vertex="1">
          <mxGeometry x="195" y="510" width="120" height="60" as="geometry" />
        </mxCell>
        <mxCell id="VKdG92RhQ-Mi5-ToEN4U-22" style="edgeStyle=orthogonalEdgeStyle;rounded=0;orthogonalLoop=1;jettySize=auto;html=1;exitX=0.5;exitY=1;exitDx=0;exitDy=0;entryX=0.5;entryY=0;entryDx=0;entryDy=0;" parent="1" source="VKdG92RhQ-Mi5-ToEN4U-19" target="VKdG92RhQ-Mi5-ToEN4U-20" edge="1">
          <mxGeometry relative="1" as="geometry" />
        </mxCell>
        <mxCell id="JIdKogByBEllGDy6UzpI-9" style="edgeStyle=orthogonalEdgeStyle;rounded=0;orthogonalLoop=1;jettySize=auto;html=1;exitX=0.5;exitY=1;exitDx=0;exitDy=0;" edge="1" parent="1" source="VKdG92RhQ-Mi5-ToEN4U-19" target="VKdG92RhQ-Mi5-ToEN4U-21">
          <mxGeometry relative="1" as="geometry" />
        </mxCell>
        <mxCell id="JIdKogByBEllGDy6UzpI-11" style="edgeStyle=orthogonalEdgeStyle;rounded=0;orthogonalLoop=1;jettySize=auto;html=1;exitX=0.5;exitY=1;exitDx=0;exitDy=0;" edge="1" parent="1" source="VKdG92RhQ-Mi5-ToEN4U-19" target="JIdKogByBEllGDy6UzpI-10">
          <mxGeometry relative="1" as="geometry" />
        </mxCell>
        <mxCell id="VKdG92RhQ-Mi5-ToEN4U-19" value="ChatInterface" style="whiteSpace=wrap;html=1;" parent="1" vertex="1">
          <mxGeometry x="830" y="280" width="120" height="60" as="geometry" />
        </mxCell>
        <mxCell id="VKdG92RhQ-Mi5-ToEN4U-20" value="IntentInput" style="rounded=0;whiteSpace=wrap;html=1;" parent="1" vertex="1">
          <mxGeometry x="830" y="640" width="120" height="60" as="geometry" />
        </mxCell>
        <mxCell id="VKdG92RhQ-Mi5-ToEN4U-21" value="SubmitIntentButton" style="whiteSpace=wrap;html=1;" parent="1" vertex="1">
          <mxGeometry x="970" y="640" width="120" height="60" as="geometry" />
        </mxCell>
        <mxCell id="zoykYoXqfU_duYT_paag-1" value="Contact" style="whiteSpace=wrap;html=1;" parent="1" vertex="1">
          <mxGeometry x="740" y="400" width="120" height="60" as="geometry" />
        </mxCell>
        <mxCell id="JIdKogByBEllGDy6UzpI-2" style="edgeStyle=orthogonalEdgeStyle;rounded=0;orthogonalLoop=1;jettySize=auto;html=1;exitX=0.5;exitY=1;exitDx=0;exitDy=0;entryX=0.677;entryY=0.047;entryDx=0;entryDy=0;entryPerimeter=0;" edge="1" parent="1" source="VKdG92RhQ-Mi5-ToEN4U-1" target="VKdG92RhQ-Mi5-ToEN4U-19">
          <mxGeometry relative="1" as="geometry" />
        </mxCell>
        <mxCell id="JIdKogByBEllGDy6UzpI-3" value="Docs" style="rounded=0;whiteSpace=wrap;html=1;" vertex="1" parent="1">
          <mxGeometry x="-80" y="400" width="120" height="60" as="geometry" />
        </mxCell>
        <mxCell id="JIdKogByBEllGDy6UzpI-4" value="GitHub" style="rounded=0;whiteSpace=wrap;html=1;" vertex="1" parent="1">
          <mxGeometry x="600" y="400" width="120" height="60" as="geometry" />
        </mxCell>
        <mxCell id="JIdKogByBEllGDy6UzpI-6" style="edgeStyle=orthogonalEdgeStyle;rounded=0;orthogonalLoop=1;jettySize=auto;html=1;entryX=0.5;entryY=0;entryDx=0;entryDy=0;" edge="1" parent="1" source="VKdG92RhQ-Mi5-ToEN4U-2" target="JIdKogByBEllGDy6UzpI-3">
          <mxGeometry relative="1" as="geometry" />
        </mxCell>
        <mxCell id="JIdKogByBEllGDy6UzpI-7" value="Login" style="rounded=0;whiteSpace=wrap;html=1;" vertex="1" parent="1">
          <mxGeometry x="-230" y="400" width="120" height="60" as="geometry" />
        </mxCell>
        <mxCell id="JIdKogByBEllGDy6UzpI-10" value="IntentOutput" style="rounded=0;whiteSpace=wrap;html=1;" vertex="1" parent="1">
          <mxGeometry x="690" y="640" width="120" height="60" as="geometry" />
        </mxCell>
      </root>
    </mxGraphModel>
  </diagram>
</mxfile>
